<?xml version="1.0" encoding="iso-8859-1"?>
<!-- Generator: Adobe Illustrator 19.0.0, SVG Export Plug-In . SVG Version: 6.00 Build 0)  -->
<svg version="1.1" id="Layer_1" xmlns="http://www.w3.org/2000/svg" xmlns:xlink="http://www.w3.org/1999/xlink" x="0px" y="0px"
	 viewBox="0 0 512 512" style="enable-background:new 0 0 512 512;" xml:space="preserve">
<path style="fill:#FFDCCC;" d="M380.191,68.954l-23.3-13.567C209.318-18.979,33.108,88.209,33.108,254.995
	c0,123.373,100.012,223.385,223.383,223.385c123.374,0,223.389-100.011,223.389-223.385
	C479.881,177.369,440.286,108.992,380.191,68.954z"/>
<path style="fill:#EAB8A4;" d="M280.341,472.204c-120.334,0-217.88-97.546-217.88-217.878c0-136.373,122.76-235.79,251.359-215.427
	C177.139,2.136,33.108,104.206,33.108,254.995c0,123.373,100.011,223.385,223.383,223.385c24.046,0,47.198-3.815,68.902-10.846
	C310.856,470.592,295.787,472.204,280.341,472.204z"/>
<path style="fill:#FFEDE6;" d="M415.9,411.471c39.567-40.303,63.981-95.533,63.981-156.475c0-77.626-39.595-146.003-99.69-186.043
	l-23.3-13.566c-20.936-10.55-42.448-17.443-63.952-21.033C205.68,169.486,264.227,353.132,415.9,411.471z"/>
<path style="fill:#E86B2D;" d="M255.994,0.007C114.613,0.007,0,114.62,0,256c0,141.382,114.613,255.993,255.994,255.993
	c141.116,0,255.994-114.353,255.994-255.993C511.988,114.62,397.375,0.007,255.994,0.007z M255.994,473.881
	c-120.33,0-217.879-97.546-217.879-217.88c0-120.331,97.548-217.88,217.879-217.88c119.716,0,217.882,96.968,217.882,217.88
	C473.877,376.334,376.326,473.881,255.994,473.881z"/>
<path style="fill:#F48356;" d="M450.755,422.137C575.002,276.605,500.673,49.595,313.68,6.536
	c-9.113,10.638-17.373,22.033-24.662,34.078C392.667,56.388,473.877,145.886,473.877,256c0,59.831-24.124,114.02-63.164,153.398
	C423.568,414.693,436.944,418.979,450.755,422.137z"/>
<g>
	<path style="fill:#CC5A27;" d="M321.811,301.616c-1.779-3.878-0.08-8.465,3.798-10.247l40.959-18.799l37.048-44.461
		c2.735-3.277,7.607-3.719,10.883-0.989c3.276,2.734,3.722,7.603,0.991,10.884c-41.563,49.875-38.643,46.855-40.885,47.88
		l-42.549,19.533C328.129,307.21,323.574,305.462,321.811,301.616z"/>
	<path style="fill:#CC5A27;" d="M387.04,368.023l-16.571-24.461L326.501,324.1c-3.904-1.728-5.668-6.291-3.941-10.195
		c1.729-3.899,6.293-5.66,10.194-3.937l45.995,20.359c2.704,1.197,1.622,0.299,21.085,29.027c2.394,3.533,1.47,8.337-2.065,10.73
		C394.251,372.476,389.438,371.567,387.04,368.023z"/>
	<path style="fill:#CC5A27;" d="M350.242,405.117l-5.545-26.928l-27.538-32.864c-2.74-3.27-2.31-8.144,0.961-10.884
		c3.27-2.742,8.14-2.311,10.885,0.96c31.2,37.231,29.889,35.122,30.435,37.757l5.938,28.843c0.86,4.181-1.829,8.265-6.01,9.125
		C355.144,411.989,351.096,409.267,350.242,405.117z"/>
	<path style="fill:#CC5A27;" d="M318.792,429.101c-5.18,0-8.905-5.015-7.394-9.978c9.253-30.426-9.081-49.145-9.866-49.926
		c-3.012-2.998-3.051-7.884-0.07-10.911c2.98-3.029,7.829-3.102,10.878-0.135c1.062,1.034,25.91,25.792,13.841,65.467
		C325.168,426.953,322.106,429.101,318.792,429.101z"/>
	<path style="fill:#CC5A27;" d="M178.847,305.416c-46.304-21.256-43.717-19.756-45.26-21.606l-38.172-45.805
		c-2.731-3.281-2.291-8.15,0.988-10.884c3.279-2.731,8.151-2.291,10.885,0.989l37.049,44.461l40.956,18.799
		c3.881,1.782,5.58,6.369,3.803,10.247C187.335,305.453,182.787,307.213,178.847,305.416z"/>
	<path style="fill:#CC5A27;" d="M113.135,370.085c-3.532-2.393-4.457-7.196-2.063-10.728l17.814-26.296
		c1.708-2.525-0.533-1.049,49.265-23.091c3.901-1.728,8.467,0.035,10.196,3.937c1.726,3.903-0.037,8.467-3.94,10.195l-43.969,19.462
		l-16.573,24.461C121.477,371.559,116.661,372.481,113.135,370.085z"/>
	<path style="fill:#CC5A27;" d="M151.535,411.127c-4.177-0.86-6.869-4.944-6.008-9.125c6.475-31.445,5.912-30.25,7.582-32.246
		l28.79-34.355c2.74-3.268,7.614-3.701,10.886-0.96c3.269,2.74,3.699,7.614,0.958,10.884l-27.538,32.864l-5.544,26.928
		C159.813,409.248,155.776,411.99,151.535,411.127z"/>
	<path style="fill:#CC5A27;" d="M184.724,423.619c-12.07-39.674,12.779-64.434,13.841-65.467c3.057-2.975,7.95-2.908,10.927,0.15
		c2.967,3.049,2.907,7.921-0.124,10.9c-0.841,0.835-19.099,19.542-9.861,49.922c1.241,4.081-1.063,8.397-5.143,9.639
		C190.335,430.003,185.977,427.741,184.724,423.619z"/>
</g>
<g>
	<path style="fill:#DD643E;" d="M368.253,211.288c-4.053-0.096-7.775-0.586-11.208-1.388c-1.168,20.898-26.025,38.193-44.773,47.513
		c4.866,5.224,9.006,11.138,12.263,17.575c18.395-9.567,54.211-32.641,53.771-67.071
		C375.328,209.309,371.996,210.468,368.253,211.288z"/>
	<path style="fill:#DD643E;" d="M200.248,257.652c-5.684-2.793-14.769-7.743-23.37-14.481
		c-13.927-10.915-21.261-22.081-21.888-33.272c-3.432,0.802-7.153,1.292-11.206,1.388c-3.742-0.819-7.076-1.978-10.058-3.371
		c-0.438,34.787,36.124,57.979,54.341,67.362C191.296,268.831,195.407,262.9,200.248,257.652z"/>
</g>
<g>
	<circle style="fill:#E86B2D;" cx="223.758" cy="215.242" r="13.573"/>
	<circle style="fill:#E86B2D;" cx="288.991" cy="215.242" r="13.573"/>
</g>
<path style="fill:#CC5A27;" d="M375.406,119.139c-0.112-0.063-0.228-0.121-0.347-0.168c-0.163-0.107-0.236-0.159-0.435-0.256
	c-7.432-3.566-12.24-3.942-14.227-1.21c-1.542,2.112-0.834,5.367-0.577,6.315c0.066,0.256,0.167,0.498,0.298,0.729
	c12.285,21.584-3.857,42.864-6.448,46.048c-8.092-7.554-19.186-12.254-32.985-13.972c-0.953-0.121-1.897,0.207-2.569,0.88
	c-0.674,0.676-0.999,1.624-0.882,2.57c0.633,5.048,2.406,15.004,7.186,24.938c9.352,19.425,25.348,28.841,43.586,28.841
	c0.228,0,0.454-0.025,0.677-0.074c30.693-6.892,34.436-35.897,34.574-37.087C407.474,144.352,390.44,127.542,375.406,119.139z"/>
<path style="fill:#B74B20;" d="M339.683,161.587c-5.602-2.422-11.945-4.085-19-4.962c-0.953-0.121-1.897,0.207-2.569,0.88
	c-0.674,0.676-0.999,1.624-0.882,2.57c0.633,5.048,2.406,15.004,7.186,24.938c9.352,19.425,25.348,28.841,43.586,28.841
	c1.027,0,11.931-2.164,20.905-10.22C386.691,204.265,351.424,205.176,339.683,161.587z"/>
<path style="fill:#CC5A27;" d="M191.358,156.625c-13.801,1.718-24.897,6.418-32.992,13.972c-2.619-3.217-18.728-24.487-6.448-46.055
	c0.134-0.232,0.234-0.477,0.303-0.732c2.563-9.671-6.298-9.72-15.055-4.968c-15.299,8.377-32.643,25.21-28.395,57.776
	c0.146,1.23,3.891,30.272,34.582,37.164c0.223,0.049,0.448,0.074,0.677,0.074c0.029,0,0.061,0,0.09-0.002
	c30.778-0.883,47.083-24.783,50.686-53.78C195.059,158.056,193.327,156.364,191.358,156.625z"/>
<path style="fill:#B74B20;" d="M148.897,131.5c0.717-2.303,1.694-4.628,3.022-6.96c0.134-0.232,0.234-0.477,0.303-0.732
	c2.563-9.671-6.298-9.72-15.055-4.968c-15.299,8.377-32.643,25.21-28.395,57.776c0.146,1.23,3.891,30.272,34.582,37.164
	c0.223,0.049,0.448,0.074,0.677,0.074c0.029,0,0.061,0,0.09-0.002c2.595-0.072,5.097-0.309,7.513-0.693
	C124.639,196.405,123.578,153.208,148.897,131.5z"/>
<path style="fill:#E86B2D;" d="M332.718,309.4c0,42.163-34.181,76.343-76.342,76.343c-42.167,0-76.345-34.181-76.345-76.343
	c0-42.165,34.179-76.345,76.345-76.345C298.537,233.055,332.718,267.237,332.718,309.4z"/>
<path style="fill:#D85319;" d="M202.04,309.4c0-38.425,28.391-70.206,65.338-75.544c-46.37-6.706-87.349,29.274-87.349,75.544
	c0,46.278,40.99,82.247,87.349,75.542C230.431,379.608,202.04,347.825,202.04,309.4z"/>
<path style="fill:#F47B47;" d="M259.42,233.134c10.621,43.927,32.578,83.426,62.604,115.228
	C351.474,298.844,317.198,235.404,259.42,233.134z"/>
<g>
</g>
<g>
</g>
<g>
</g>
<g>
</g>
<g>
</g>
<g>
</g>
<g>
</g>
<g>
</g>
<g>
</g>
<g>
</g>
<g>
</g>
<g>
</g>
<g>
</g>
<g>
</g>
<g>
</g>
</svg>
