<?xml version="1.0" encoding="iso-8859-1"?>
<!-- Generator: Adobe Illustrator 19.0.0, SVG Export Plug-In . SVG Version: 6.00 Build 0)  -->
<svg version="1.1" id="Layer_1" xmlns="http://www.w3.org/2000/svg" xmlns:xlink="http://www.w3.org/1999/xlink" x="0px" y="0px"
	 viewBox="0 0 512 512" style="enable-background:new 0 0 512 512;" xml:space="preserve">
<path style="fill:#F9B546;" d="M377.888,71.232L354.753,57.76C208.213-16.073,33.249,90.354,33.249,255.968
	c0,122.505,99.309,221.815,221.814,221.815c122.503,0,221.815-99.311,221.815-221.815
	C476.879,178.885,437.56,110.987,377.888,71.232z"/>
<path style="fill:#EF9F2B;" d="M281.371,469.499c-120.331,0-217.882-97.55-217.882-217.882
	c0-118.687,92.936-209.337,201.798-217.477c-119.91-5.396-232.038,89.247-232.038,221.827c0,122.505,99.309,221.816,221.813,221.816
	c28.457,0,55.659-5.366,80.658-15.129C318.347,467.117,300.138,469.499,281.371,469.499z"/>
<path style="fill:#FCC16B;" d="M413.958,410.717c38.929-39.965,62.921-94.551,62.921-154.749
	c0-77.083-39.318-144.981-98.989-184.736L354.754,57.76c-20.766-10.463-42.103-17.302-63.432-20.87
	C206.713,171.345,264.726,351.864,413.958,410.717z"/>
<path style="fill:#F77C46;" d="M342.767,123.503l9.619-2.75c5.363-1.535,6.097-8.847,1.161-11.422
	c-16.24-8.477-33.407-12.779-51.029-12.795c-25.088,0-43.335,8.871-46.525,10.53c-25.522-13.267-63.282-15.618-97.556,2.265
	c-4.925,2.569-4.205,9.891,1.165,11.422l9.619,2.746c-24.063,10.915-48.015,34.421-61.059,67.222
	c-1.762,4.439,1.975,9.111,6.673,8.391l12.51-1.899c-2.38,11.537-16.594,88.005,11.543,144.456
	c2.106,4.222,7.999,4.624,10.656,0.701l9.412-13.943c16.491,42.813,49.778,87.019,92.46,110.96c1.667,0.926,2.738,1.64,4.575,1.64
	c7.085,0,67.679-37.031,97.03-112.605l9.42,13.948c2.635,3.904,8.536,3.535,10.654-0.701
	c28.137-56.453,13.921-132.93,11.542-144.454c13.368,2.028,12.581,1.951,13.485,1.968c3.4-0.012,6.156-2.773,6.156-6.178
	C404.282,189.381,385.953,143.116,342.767,123.503z"/>
<path style="fill:#FC8A63;" d="M342.767,123.503l9.619-2.75c5.363-1.535,6.097-8.847,1.161-11.422
	c-30.211-15.769-63.545-16.517-92.081-4.771c-5.998,21.729-9.221,44.609-9.221,68.246c0,75.146,32.409,142.719,84.009,189.516
	c9.511-16.095,14.935-29.187,16.768-33.901l9.42,13.948c2.635,3.904,8.536,3.535,10.654-0.701
	c28.137-56.453,13.921-132.93,11.542-144.454l12.51,1.897c5.007,0.753,8.701-4.429,6.483-8.863
	C390.613,157.806,366.784,134.41,342.767,123.503z"/>
<path style="fill:#DDAB62;" d="M255.993,323.557c0,0-27.656,11.971-39.531,1.153c3.918,18.239,20.122,31.916,39.53,31.916
	c19.405,0,35.613-13.677,39.527-31.914C283.646,335.528,255.993,323.557,255.993,323.557z"/>
<path style="fill:#CE964D;" d="M244.338,327.373c-9.005,2.241-21.048,3.559-27.875-2.664c5.092,23.707,30.022,37.829,53.131,29.563
	C257.41,349.924,247.937,339.892,244.338,327.373z"/>
<path style="fill:#E6692B;" d="M255.994,0.007C114.613,0.007,0,114.62,0,256s114.613,255.993,255.994,255.993
	c141.101,0,255.994-114.342,255.994-255.993C511.988,114.62,397.375,0.007,255.994,0.007z M255.994,473.882
	c-120.33,0-217.879-97.55-217.879-217.882c0-120.333,97.548-217.88,217.879-217.88c119.712,0,217.882,96.962,217.882,217.88
	C473.877,376.332,376.326,473.882,255.994,473.882z"/>
<path style="fill:#F2743D;" d="M450.755,422.136C575.002,276.615,500.673,49.593,313.68,6.534
	c-9.113,10.64-17.373,22.032-24.662,34.079C392.989,56.429,473.877,146.213,473.877,256c0,59.828-24.123,114.02-63.164,153.396
	C423.568,414.689,436.946,418.979,450.755,422.136z"/>
<path style="fill:#F2CD83;" d="M338.214,197.364c-11.187-49.547-69.614-41.021-82.221-17.046
	c-12.608-23.975-71.033-32.5-82.222,17.046c-11.187,49.545,50.078,54.872,38.892,103.887
	c-11.188,49.012,43.331,25.394,43.331,25.394s54.518,23.619,43.331-25.394C288.135,252.236,349.403,246.908,338.214,197.364z"/>
<path style="fill:#DDAB62;" d="M235.327,301.251c11.188-49.015-50.078-54.343-38.891-103.887
	c4.735-20.967,17.93-31.533,32.532-34.929c-21.478-4.72-48.029,3.19-55.197,34.929c-11.187,49.545,50.078,54.872,38.892,103.887
	c-7.686,33.674,15.644,33.063,30.999,29.384C235.985,327.467,231.214,319.271,235.327,301.251z"/>
<path style="fill:#F9D89D;" d="M338.214,197.364c-11.187-49.547-69.614-41.021-82.221-17.046c-0.979-1.858-2.231-3.627-3.719-5.28
	c0.467,54.47,17.944,104.88,47.402,146.161c1.539-4.675,1.661-11.132-0.352-19.947C288.135,252.236,349.403,246.908,338.214,197.364
	z"/>
<path style="fill:#E8BC70;" d="M255.993,275.462c-4.266,0-7.726,3.459-7.726,7.728v46.193c4.598-1.384,7.726-2.738,7.726-2.738
	s3.129,1.354,7.727,2.738V283.19C263.72,278.921,260.26,275.462,255.993,275.462z"/>
<g>
	<path style="fill:#7A746F;" d="M276.646,226.471l15.657-16.997c5.054-5.483,14.248-1.277,13.356,6.156l-1.664,13.878
		c-0.39,3.254-2.79,5.908-5.988,6.619l-13.995,3.121C276.698,240.905,271.508,232.05,276.646,226.471z"/>
	<path style="fill:#7A746F;" d="M227.976,239.249l-13.995-3.121c-3.199-0.711-5.599-3.365-5.99-6.619l-1.666-13.878
		c-0.888-7.438,8.305-11.636,13.355-6.156l15.66,16.997C240.487,232.067,235.263,240.903,227.976,239.249z"/>
</g>
<path style="fill:#B28D5B;" d="M255.992,296.613L255.992,296.613c-4.277,0-5.105-1.87-16.25-13.861
	c-4.58-4.927-1.081-12.986,5.661-12.986h21.18c3.073,0,5.858,1.819,7.084,4.638c1.228,2.818,0.668,6.096-1.426,8.348
	C261.064,294.778,260.263,296.613,255.992,296.613z"/>
<path style="fill:#DD5A2C;" d="M225.682,97.761c-18.183-2.75-36.446-0.842-53.848,5.615c-0.122,0.045-4.099,1.551-4.188,1.64
	c-2.612,1.086-6.311,2.8-9.21,4.316c-4.925,2.569-4.205,9.891,1.165,11.422l9.619,2.746c-22.97,10.42-46.382,32.827-59.518,63.501
	l0,0c-1.577,3.654-3.187,6.638-0.635,9.848c2.782,3.5,5.21,2.349,18.278,0.363c-8.513,40.89-9.739,101.759,11.543,144.456
	c2.106,4.222,7.999,4.624,10.656,0.701l9.412-13.943c17.301,44.918,52.133,89.138,94.091,111.853
	c0.224,0.121,0.454,0.225,0.684,0.316c-47.683-47.041-79.527-110.1-86.776-180.459C166.958,257.484,144.378,161.526,225.682,97.761z
	"/>
<g>
</g>
<g>
</g>
<g>
</g>
<g>
</g>
<g>
</g>
<g>
</g>
<g>
</g>
<g>
</g>
<g>
</g>
<g>
</g>
<g>
</g>
<g>
</g>
<g>
</g>
<g>
</g>
<g>
</g>
</svg>
