<?xml version="1.0" encoding="iso-8859-1"?>
<!-- Generator: Adobe Illustrator 19.0.0, SVG Export Plug-In . SVG Version: 6.00 Build 0)  -->
<svg version="1.1" id="Layer_1" xmlns="http://www.w3.org/2000/svg" xmlns:xlink="http://www.w3.org/1999/xlink" x="0px" y="0px"
	 viewBox="0 0 512 512" style="enable-background:new 0 0 512 512;" xml:space="preserve">
<path style="fill:#D8D8D8;" d="M378.927,72.309L355.796,58.84C209.297-14.987,34.371,91.426,34.371,256.995
	c0,122.473,99.286,221.762,221.76,221.762S477.89,379.468,477.89,256.995C477.89,179.933,438.583,112.052,378.927,72.309z"/>
<path style="fill:#BDC4C6;" d="M279.934,36.261C155.083,22.745,34.371,119.456,34.371,256.995
	c0,122.473,99.286,221.762,221.76,221.762c26.815,0,52.518-4.76,76.311-13.48c-17.479,4.519-35.805,6.933-54.697,6.933
	c-120.334,0-217.883-97.549-217.883-217.883C59.861,129.073,163.413,35.002,279.934,36.261z"/>
<path style="fill:#EFEFEF;" d="M415.399,411.282c38.675-39.917,62.491-94.318,62.491-154.287
	c0-77.063-39.306-144.943-98.962-184.686L355.796,58.84c-21.269-10.718-43.136-17.63-64.981-21.121
	C206.953,172.024,265.07,353.136,415.399,411.282z"/>
<path style="fill:#42AED3;" d="M217.467,324.444c0.602-2.846,1.317-5.67,2.128-8.477"/>
<path style="fill:#E0AF60;" d="M256.001,0.001C114.615,0.001,0,114.617,0,256c0,141.386,114.615,255.999,256.001,255.999
	C396.935,511.999,512,397.815,512,256C512,114.617,397.385,0.001,256.001,0.001z M256.001,473.886
	c-120.336,0-217.885-97.549-217.885-217.885c0-120.334,97.549-217.885,217.885-217.885c119.719,0,217.885,96.97,217.885,217.885
	C473.887,376.336,376.335,473.886,256.001,473.886z"/>
<path style="fill:#EAC69B;" d="M276.769,199.995c-5.161-18.706-22.501-25.018-41.797-23.442
	c-34.22,2.872-48.97-10.339-52.132-10.437l-5.317-0.17c-2.138-0.025-3.985,1.522-4.226,3.65
	c-0.043,0.381-4.829,38.131-48.086,55.101c-3.907,1.535-3.255,7.267,0.87,7.907c4.854,0.759,18.554,4.644,23.588,13.415
	c2.695,4.696,2.727,10.232,0.096,16.93c-1.029,2.625,0.827,5.471,3.617,5.623l2.432,0.129c-3.611,19.428-2.334,41.986,17.541,41.986
	c7.164,0,15.989-2.076,24.453-3.252h-0.002l0.004-0.002c23.317-3.269,28.503,18.127,26.84,41.612
	c-3.553,50.231,53.422-71.09,53.422-71.09S299.848,225.816,276.769,199.995z"/>
<path style="fill:#F2D2AF;" d="M252.311,177.537c0.676,37.103,9.246,72.27,24.11,103.901c8.58-17.934,19.414-60.111,0.348-81.443
	C273.407,187.81,264.539,180.309,252.311,177.537z"/>
<path style="fill:#2B9DBC;" d="M335.925,397.507c1.54,0.929,3.488,1.653,5.813,2.159c0.023-0.588-0.129-1.181-0.504-1.667
	C340.037,396.437,338.536,397.116,335.925,397.507z"/>
<path style="fill:#EFBE78;" d="M451.083,421.811C574.121,277.22,501.73,50.955,315.125,6.869
	c-9.059,10.616-17.274,21.98-24.521,33.996C394.816,57.471,473.927,147.694,473.927,256c0,59.584-23.928,113.572-62.684,152.908
	C424.03,414.251,437.345,418.584,451.083,421.811z"/>
<g>
	<path style="fill:#DBB183;" d="M192.233,170.479c-11.078-4.842-4.602-4.209-14.707-4.532c-2.138-0.025-3.985,1.522-4.226,3.65
		c-0.043,0.381-4.829,38.131-48.086,55.101c-3.907,1.535-3.255,7.267,0.87,7.907c4.854,0.759,18.554,4.644,23.588,13.415
		c2.695,4.696,2.727,10.232,0.096,16.93c-1.029,2.625,0.827,5.471,3.617,5.623l2.432,0.129
		c-8.365,44.995,17.543,41.986,17.543,41.986c3.652,0,7.737-0.537,12.071-1.237C162.618,265.894,164.666,212.532,192.233,170.479z"
		/>
	<path style="fill:#DBB183;" d="M224.582,355.578c0.449,5.996,2.69,6.849,6.024,4.298
		C228.554,358.498,226.548,357.061,224.582,355.578z"/>
</g>
<path style="fill:#42AED3;" d="M321.378,359.526c14.487-18.268,34.326-43.288,46.919-74.285
	c19.048-46.887,14.44-94.417-7.972-132.839c-48.893-92.409-89.387-35.982-112.194-46.458c-26.144-12.007-56.264-25.688-80.27,2.073
	c-24.16,27.937-4.594,72.973,47.978,73.716c28.226,0.395,49.448,7.946,56.769,20.2c6.502,10.879,0.049,18.429-12.816,36.214
	c-10.425,14.42-23.401,32.368-33.25,52.854c-37.251,79.584-7.977,157.494,80.657,135.87c1.196-0.317,26.17-9.912,34.294-26.155
	c0.954-1.911-0.71-4.098-2.816-3.678c-15.083,2.858-37.272,3.249-34.518-11.897C305.084,380.075,312.276,371.007,321.378,359.526z"
	/>
<g>
	<path style="fill:#2B9DBC;" d="M231.457,182.763c-20.012-3.203-35.473-13.687-42.472-29.286
		c-12.341-27.497,8.688-54.028,31.257-58.724c-20.994-6.136-38.122-3.225-52.382,13.265c-24.16,27.937-4.594,72.973,47.978,73.716
		C221.329,181.811,226.55,182.161,231.457,182.763z"/>
	<path style="fill:#2B9DBC;" d="M254.268,293.065c15.655-32.554,39.727-59.474,46.579-72.638
		c8.676-16.693-10.965-35.985-57.283-36.632c-2.957-0.041-5.838-0.236-8.645-0.559c18.56,2.809,32.129,9.397,37.69,18.699
		c6.502,10.879,0.049,18.429-12.816,36.214c-10.425,14.42-23.401,32.368-33.25,52.854c-33.758,72.121-12.692,144.997,60.004,139.279
		C235.147,416.933,226.202,353.056,254.268,293.065z"/>
</g>
<path style="fill:#76B8E5;" d="M360.324,152.402c-40.739-76.997-75.578-50.664-99.406-45.795
	c-6.961,26.06-9.822,53.261-8.229,81.012c9.422,3.457,16.335,8.322,19.918,14.315c6.576,11.001-0.332,18.94-12.162,35.313
	c11.535,44.43,34.709,84.169,66.08,115.763c13.773-17.541,30.613-40.303,41.771-67.769
	C387.345,238.354,382.737,190.825,360.324,152.402z"/>
<path style="fill:#5DA7D1;" d="M252.517,184.178c0.053,1.151,0.109,2.299,0.174,3.442c5.988,2.142,13.426,6.098,17.5,11.006
	c9.703,11.15,4.583,20.215-9.745,38.622c2.537,9.775,5.641,19.324,9.268,28.61c25.532-39.537,39.317-47.32,30.615-61.862
	C293.806,193.072,276.24,185.896,252.517,184.178z"/>
<g>
</g>
<g>
</g>
<g>
</g>
<g>
</g>
<g>
</g>
<g>
</g>
<g>
</g>
<g>
</g>
<g>
</g>
<g>
</g>
<g>
</g>
<g>
</g>
<g>
</g>
<g>
</g>
<g>
</g>
</svg>
