<?xml version="1.0" encoding="iso-8859-1"?>
<!-- Generator: Adobe Illustrator 19.0.0, SVG Export Plug-In . SVG Version: 6.00 Build 0)  -->
<svg version="1.1" id="Layer_1" xmlns="http://www.w3.org/2000/svg" xmlns:xlink="http://www.w3.org/1999/xlink" x="0px" y="0px"
	 viewBox="0 0 512 512" style="enable-background:new 0 0 512 512;" xml:space="preserve">
<path style="fill:#FCF0D9;" d="M378.963,70.366l-23.119-13.461C209.417-16.879,34.579,89.473,34.579,254.963
	c0,122.411,99.236,221.65,221.649,221.65c122.415,0,221.647-99.24,221.647-221.65C477.875,177.939,438.591,110.094,378.963,70.366z"
	/>
<path style="fill:#EAD6B7;" d="M34.579,254.963c0,122.411,99.236,221.65,221.649,221.65c29.894,0,58.398-5.932,84.419-16.66
	c-20.22,6.199-41.688,9.545-63.939,9.545c-120.332,0-217.88-97.55-217.88-217.882c0-122.726,99.372-215.475,212.968-218.016
	C149.983,25.096,34.579,120.513,34.579,254.963z"/>
<path style="fill:#F9F4ED;" d="M413.919,410.707c39.54-40.031,63.957-95.034,63.957-155.745c0-77.024-39.285-144.869-98.913-184.598
	l-23.119-13.461c-20.931-10.547-42.442-17.406-63.939-20.946C206.345,170.434,264.615,351.971,413.919,410.707z"/>
<g>
	<path style="fill:#C2C5C6;" d="M255.367,137.614c-4.268,0-7.726-3.459-7.726-7.726V98.799c0-4.265,3.458-7.724,7.726-7.724
		c4.268,0,7.727,3.459,7.727,7.724v31.089C263.094,134.155,259.634,137.614,255.367,137.614z"/>
	<path style="fill:#C2C5C6;" d="M256.265,375.657c-4.268,0-7.728-3.461-7.728-7.728v-197.44c0-4.267,3.46-7.724,7.728-7.724
		c4.268,0,7.725,3.457,7.725,7.724V367.93C263.989,372.196,260.532,375.657,256.265,375.657z"/>
</g>
<path style="fill:#A7D2DB;" d="M364.351,285.635c-4.268,0-7.727-3.459-7.727-7.726V201.91c0-4.267,3.459-7.728,7.727-7.728
	c4.268,0,7.726,3.461,7.726,7.728v75.999C372.077,282.176,368.618,285.635,364.351,285.635z"/>
<g>
	<path style="fill:#CCE5ED;" d="M407.362,286.221l-49.674-84.533c-2.161-3.678-0.932-8.416,2.748-10.575
		c3.679-2.165,8.415-0.933,10.576,2.748l49.672,84.529c2.162,3.682,0.934,8.416-2.745,10.577
		C414.262,291.13,409.526,289.902,407.362,286.221z"/>
	<path style="fill:#CCE5ED;" d="M310.764,288.968c-3.679-2.161-4.91-6.896-2.75-10.577l49.675-84.529
		c2.163-3.68,6.9-4.911,10.576-2.748c3.68,2.161,4.91,6.898,2.748,10.575l-49.673,84.533
		C319.172,289.906,314.435,291.128,310.764,288.968z"/>
</g>
<path style="fill:#A7D2DB;" d="M144.358,285.635c-4.268,0-7.726-3.459-7.726-7.726V201.91c0-4.267,3.458-7.728,7.726-7.728
	s7.728,3.461,7.728,7.728v75.999C152.085,282.176,148.625,285.635,144.358,285.635z"/>
<g>
	<path style="fill:#CCE5ED;" d="M187.37,286.221l-49.674-84.533c-2.161-3.678-0.932-8.414,2.748-10.575
		c3.678-2.165,8.414-0.933,10.575,2.748l49.674,84.529c2.161,3.682,0.934,8.416-2.748,10.577
		C194.275,291.127,189.537,289.907,187.37,286.221z"/>
	<path style="fill:#CCE5ED;" d="M90.77,288.968c-3.678-2.161-4.909-6.896-2.747-10.577l49.674-84.529
		c2.161-3.68,6.898-4.911,10.576-2.748c3.678,2.161,4.908,6.898,2.747,10.575l-49.674,84.533
		C99.188,289.893,94.457,291.134,90.77,288.968z"/>
</g>
<path style="fill:#D18146;" d="M414.022,277.499h-99.345c-5.89,0-10.662,4.773-10.662,10.663c0,13.089,0,23.102,0,36.176
	c0,16.661,13.505,30.172,30.169,30.172h60.335c16.662,0,30.169-13.511,30.169-30.172c0-13.089,0-23.102,0-36.176
	C424.688,282.272,419.913,277.499,414.022,277.499z"/>
<path style="fill:#8E4C1B;" d="M328.852,324.338c0-13.089,0-23.102,0-36.176c0-5.891,4.774-10.663,10.663-10.663h-24.837
	c-5.89,0-10.662,4.773-10.662,10.663c0,13.089,0,23.102,0,36.176c0,16.661,13.505,30.172,30.169,30.172h24.837
	C342.357,354.511,328.852,341,328.852,324.338z"/>
<path style="fill:#D18146;" d="M194.032,277.499H94.685c-5.889,0-10.662,4.773-10.662,10.663c0,13.089,0,23.102,0,36.176
	c0,16.661,13.506,30.172,30.167,30.172h60.338c16.659,0,30.166-13.511,30.166-30.172c0-13.089,0-23.102,0-36.176
	C204.694,282.272,199.92,277.499,194.032,277.499z"/>
<path style="fill:#8E4C1B;" d="M108.859,324.338c0-13.089,0-23.102,0-36.176c0-5.891,4.774-10.663,10.662-10.663H94.685
	c-5.889,0-10.662,4.773-10.662,10.663c0,13.089,0,23.102,0,36.176c0,16.661,13.506,30.172,30.167,30.172h24.837
	C122.366,354.511,108.859,341,108.859,324.338z"/>
<path style="fill:#EFA470;" d="M414.022,277.499h-99.345c-5.89,0-10.662,4.773-10.662,10.663c0,8.13,0,13.504,0,21.916
	c5.401,0,115.795,0,120.674,0c0-8.448,0-13.794,0-21.916C424.688,282.272,419.913,277.499,414.022,277.499z"/>
<path style="fill:#D8854C;" d="M328.852,310.079c0-8.448,0-13.794,0-21.916c0-5.891,4.774-10.663,10.663-10.663h-24.837
	c-5.89,0-10.662,4.773-10.662,10.663c0,8.13,0,13.504,0,21.916C315.185,310.079,310.993,310.079,328.852,310.079z"/>
<path style="fill:#EFA470;" d="M194.031,277.499H94.685c-5.891,0-10.662,4.773-10.662,10.663c0,8.13,0,13.504,0,21.916
	c5.416,0,115.84,0,120.672,0c0-8.448,0-13.794,0-21.916C204.694,282.272,199.92,277.499,194.031,277.499z"/>
<path style="fill:#D8854C;" d="M108.859,310.079c0-8.448,0-13.794,0-21.916c0-5.891,4.774-10.663,10.662-10.663H94.685
	c-5.88,0-10.662,4.764-10.662,10.663c0,8.13,0,13.504,0,21.916C90.066,310.079,74.771,310.079,108.859,310.079z"/>
<path style="fill:#FFBC00;" d="M255.994,0.007C114.612,0.007,0,114.62,0,256s114.612,255.993,255.994,255.993
	c140.985,0,255.994-114.238,255.994-255.993C511.988,114.62,397.375,0.007,255.994,0.007z M255.994,473.881
	c-120.333,0-217.882-97.548-217.882-217.88c0-120.333,97.548-217.88,217.882-217.88c119.716,0,217.879,96.962,217.879,217.88
	C473.873,376.332,376.324,473.881,255.994,473.881z"/>
<path style="fill:#FFD473;" d="M450.752,422.136C575.003,276.618,500.676,49.593,313.678,6.535
	c-9.114,10.64-17.372,22.032-24.66,34.079C392.738,56.392,473.873,145.961,473.873,256c0,59.828-24.122,114.018-63.165,153.396
	C423.567,414.689,436.942,418.979,450.752,422.136z"/>
<path style="fill:#B36C27;" d="M263.601,354.511h-15.216c-6.827,0-12.363,5.533-12.363,12.36v20.22h39.943v-20.22
	C275.964,360.044,270.43,354.511,263.601,354.511z"/>
<path style="fill:#9E571D;" d="M265.98,354.741c-1.594-0.307-0.968-0.23-17.595-0.23c-6.827,0-12.363,5.533-12.363,12.36v20.22
	h19.972v-20.22C255.993,360.858,260.287,355.851,265.98,354.741z"/>
<path style="fill:#FFBC00;" d="M255.367,66.014c-9.748,0-17.68,7.931-17.68,17.684c0,9.746,7.931,17.68,17.68,17.68
	c9.75,0,17.683-7.933,17.683-17.68C273.049,73.945,265.117,66.014,255.367,66.014z"/>
<path style="fill:#D18146;" d="M399.357,135.923c-8.541-7.213-21.922-4.115-26.321,6.442c-1.045,2.502-2.73,5.635-4.832,6.32
	c-10.114,3.296-41.201-16.825-50.968-22.624c-20.482-12.29-42.885-10.866-61.869,3.827c-18.415-14.252-40.785-16.478-61.868-3.827
	c-9.863,5.857-40.797,25.94-50.97,22.624c-2.102-0.686-3.786-3.819-4.83-6.32c-3.804-9.127-14.787-13.216-23.797-8.173
	c-1.471,0.818-2.534,1.739-2.534,1.739c-14.821,12.244,1.161,36.822,18.173,43.806c1.366-6.939,7.478-12.174,14.817-12.174
	c7.663,0,13.977,5.713,14.959,13.107c22.731-5.961,47.744-24.67,55.876-27.92c4.862-1.854,9.355-1.843,14.34,0.5
	c4.791,2.243,9.854,6.896,12.035,10.083l-0.074-0.111c6.513,9.53,20.918,9.918,27.748,0l-0.078,0.111
	c1.412-2.229,11.192-13.588,22.449-11.68c9.534,1.579,33.027,21.263,57.863,28.48c1.209-7.132,7.401-12.569,14.875-12.569
	c7.591,0,13.857,5.606,14.928,12.898c15.744-5.453,26.117-22.347,26.117-31.617C405.396,141.521,400.357,136.331,399.357,135.923z"
	/>
<path style="fill:#8E4C1B;" d="M402.766,139.83c-17.598,42.674-66.288,16.993-66.288,16.993v-0.004
	c-23.729-10.597-36.607-22.75-45.904-23.756c-9.957-1.031-19.163,8.458-21.41,11.824l0.078-0.109
	c-6.889,10.003-21.29,9.448-27.748,0l0.074,0.109c-3.105-4.303-10.22-10.661-17.194-11.711c-7.208-1.087-12.397,2.582-17.801,5.85
	c-12.391,7.47-24.988,15.051-37.375,19.921l-0.004,0.012c0,0-27.63,15.424-49.301-3.471c-4.279-3.535-8.497-8.549-11.924-15.666
	c-8.735,13.957,7.493,34.137,21.57,39.915c1.366-6.939,7.478-12.174,14.817-12.174c7.663,0,13.977,5.713,14.959,13.107
	c20.814-5.458,45.113-22.445,52.875-26.536c6.503-3.522,12.006-3.393,17.341-0.886c4.866,2.278,9.885,6.941,12.035,10.083
	l-0.074-0.111c6.513,9.53,20.918,9.918,27.748,0l-0.078,0.111c0.633-1.001,3.685-4.601,7.838-7.605
	c11.518-8.178,19.289-3.02,27.158,1.741c15.051,9.074,30.404,18.33,45.316,22.663c1.209-7.132,7.401-12.569,14.875-12.569
	c7.591,0,13.857,5.606,14.928,12.898C394.325,175.249,411.797,154.299,402.766,139.83z"/>
<path style="fill:#DB9463;" d="M399.367,135.931c-0.002-0.004-0.005-0.006-0.01-0.008c-8.574-7.241-21.936-4.079-26.321,6.442
	c-1.045,2.502-2.73,5.635-4.832,6.32c-10.114,3.296-41.201-16.825-50.968-22.624c-20.354-12.214-42.552-10.843-61.316,3.412
	c-2.268,13.265-3.504,26.883-3.64,40.765c7.214,1.195,13.453-1.921,16.963-7.019l-0.078,0.111
	c1.412-2.229,11.192-13.588,22.449-11.68c9.534,1.579,33.027,21.263,57.863,28.48c1.209-7.132,7.401-12.569,14.875-12.569
	c7.591,0,13.857,5.606,14.928,12.898C396.841,174.377,415.093,148.955,399.367,135.931z"/>
<path style="fill:#C17C4D;" d="M402.766,139.83c-17.598,42.674-66.288,16.993-66.288,16.993v-0.004
	c-23.729-10.597-36.607-22.75-45.904-23.756c-9.957-1.031-19.163,8.458-21.41,11.824l0.078-0.109
	c-4.054,5.887-10.955,7.958-16.125,7.136c-0.488,6.053-0.779,12.16-0.839,18.325c7.214,1.195,13.453-1.921,16.963-7.019
	l-0.078,0.111c0.633-1.001,3.685-4.601,7.838-7.605c11.518-8.178,19.289-3.02,27.158,1.741c15.051,9.074,30.404,18.33,45.316,22.663
	c1.209-7.132,7.401-12.569,14.875-12.569c7.591,0,13.857,5.606,14.928,12.898C394.325,175.249,411.797,154.299,402.766,139.83z"/>
<g>
	<path style="fill:#FFBC00;" d="M144.358,164.989c-9.749,0-17.681,7.929-17.681,17.678c0,9.75,7.931,17.684,17.681,17.684
		s17.682-7.933,17.682-17.684C162.04,172.918,154.108,164.989,144.358,164.989z"/>
	<path style="fill:#FFBC00;" d="M364.351,164.989c-9.75,0-17.682,7.929-17.682,17.678c0,9.75,7.931,17.684,17.682,17.684
		c9.749,0,17.682-7.933,17.682-17.684C382.032,172.918,374.1,164.989,364.351,164.989z"/>
</g>
<path style="fill:#D18146;" d="M310.982,410.856c0,6.829-5.534,12.363-12.36,12.363h-85.257c-6.827,0-12.362-5.535-12.362-12.363
	v-13.392c0-6.829,5.535-12.363,12.362-12.363h85.257c6.827,0,12.36,5.535,12.36,12.363V410.856z"/>
<path style="fill:#8E4C1B;" d="M298.622,406.148h-85.257c-6.201,0-11.321-4.571-12.211-10.523
	c-0.202,1.349-0.151,0.448-0.151,15.231c0,6.829,5.535,12.363,12.362,12.363h85.257c6.827,0,12.36-5.535,12.36-12.363
	c0-14.854,0.049-13.896-0.15-15.231C309.943,401.577,304.821,406.148,298.622,406.148z"/>
<g>
</g>
<g>
</g>
<g>
</g>
<g>
</g>
<g>
</g>
<g>
</g>
<g>
</g>
<g>
</g>
<g>
</g>
<g>
</g>
<g>
</g>
<g>
</g>
<g>
</g>
<g>
</g>
<g>
</g>
</svg>
