<?xml version="1.0" encoding="iso-8859-1"?>
<!-- Generator: Adobe Illustrator 19.0.0, SVG Export Plug-In . SVG Version: 6.00 Build 0)  -->
<svg version="1.1" id="Layer_1" xmlns="http://www.w3.org/2000/svg" xmlns:xlink="http://www.w3.org/1999/xlink" x="0px" y="0px"
	 viewBox="0 0 512 512" style="enable-background:new 0 0 512 512;" xml:space="preserve">
<path style="fill:#D8D8D8;" d="M380.449,68.581l-23.47-13.67C208.315-20.003,30.804,87.978,30.804,255.996
	c0,124.283,100.752,225.04,225.037,225.04c124.284,0,225.037-100.757,225.037-225.04
	C480.877,177.794,440.989,108.912,380.449,68.581z"/>
<path style="fill:#C4C3C2;" d="M328.5,42.871C186.586-6.112,30.804,98.596,30.804,255.996c0,124.283,100.752,225.04,225.037,225.04
	c38.514,0,74.764-9.684,106.461-26.738c-26.551,11.517-55.841,17.906-86.625,17.906c-120.331,0-217.88-97.546-217.88-217.878
	C57.798,111.126,193.158,8.678,328.5,42.871z"/>
<path style="fill:#EDEFEF;" d="M417.819,412.199c39.039-40.474,63.059-95.531,63.059-156.203
	c0-78.201-39.888-147.084-100.428-187.414l-23.47-13.67c-20.858-10.512-42.284-17.421-63.708-21.07
	C205.134,169.559,264.528,354.603,417.819,412.199z"/>
<g>
	<path style="fill:#6AD3EF;" d="M155.749,264.758c-6.816,0-10.33-8.276-5.492-13.161l127.406-128.72
		c3.004-3.031,7.894-3.057,10.927-0.057c3.035,3.004,3.059,7.894,0.057,10.927C151.267,272.544,160.355,264.758,155.749,264.758z"/>
	<path style="fill:#6AD3EF;" d="M277.663,391.183L150.257,262.467c-3.002-3.033-2.977-7.925,0.056-10.927
		c3.033-3.002,7.925-2.977,10.927,0.057l127.407,128.716c3.002,3.035,2.979,7.923-0.057,10.927
		C285.562,394.241,280.664,394.219,277.663,391.183z"/>
</g>
<path style="fill:#FFBC00;" d="M117.833,223.091c-0.481-0.695-1.272-1.108-2.115-1.108c-37.722,0-36.406-0.519-37.399,1.384
	c-0.997,1.903-1.466,0.313,21.72,33.663c-23.182,33.344-22.719,31.762-21.72,33.663c0.443,0.851,1.323,1.386,2.282,1.386
	c37.9,0,36.171,0.421,37.233-1.108c0.43-0.619,22.729-32.534,22.927-33.262C141.218,256.047,142.169,258.088,117.833,223.091z"/>
<path style="fill:#B36C27;" d="M335.34,328.759c14.44-24.067,12.371-49.997-4.437-71.729c16.888-21.816,18.809-47.774,4.437-71.729
	c-0.995-1.655-1.999-3.32-3.006-4.989c-30.777-51.065-26.222-55.402-15.9-59.707c9.948-4.146,14.651-15.565,10.507-25.509
	c-4.146-9.945-15.569-14.649-25.511-10.505c-18.899,7.876-26.417,20.368-29.397,29.464c-9.36,28.565,11.379,60.6,29.853,91.318
	c5.083,8.477,5.385,15.75,0.972,23.582c-4.13,7.325-10.663,12.031-10.73,12.078l0.141-0.098l0.008,0.012
	c-11.366,7.776-11.267,24.47-0.008,32.177c0.057,0.041,6.025,4.378,10.132,11.202c7.592,12.608,1.364,21.23-3.475,29.275
	c-17.586,29.162-35.768,59.316-26.892,86.403c6.354,19.4,26.912,30.971,36.892,30.971c7.642,0,14.895-4.519,18.016-12.01
	c4.144-9.946-0.559-21.367-10.507-25.511c-2.9-1.21-6.527-3.162-7.327-5.6c-2.76-8.452,9.019-29.772,13.261-37.248"/>
<path style="fill:#8E4C1B;" d="M293.207,400.005c-9.426-28.757,11.694-61.018,29.852-91.32c5.237-8.733,5.4-16.247,0.516-24.358
	c-4.108-6.825-10.075-11.161-10.132-11.202c-11.271-7.714-11.348-24.408,0.008-32.177l-0.008-0.012l-0.143,0.098
	c0.064-0.047,6.6-4.753,10.73-12.078c6.849-12.153,0.892-20.5-3.933-28.496c-17.586-29.16-35.77-59.318-26.891-86.405
	c2.797-8.541,9.604-20.081,26.074-27.977c-5.179-3.234-11.785-4.013-17.85-1.487c-18.899,7.876-26.417,20.368-29.397,29.464
	c-9.36,28.565,11.379,60.6,29.853,91.318c5.083,8.477,5.385,15.75,0.972,23.582c-4.13,7.325-10.663,12.031-10.73,12.078l0.141-0.098
	l0.008,0.012c-11.366,7.776-11.267,24.47-0.008,32.177c0.057,0.041,6.025,4.378,10.132,11.202
	c7.592,12.608,1.364,21.23-3.475,29.275c-17.586,29.162-35.768,59.316-26.892,86.403c6.354,19.4,26.912,30.971,36.892,30.971
	c3.686,0,7.276-1.062,10.362-2.992C302.813,420.09,296.005,408.55,293.207,400.005z"/>
<path style="fill:#DB9463;" d="M335.34,185.301c-0.995-1.655-1.999-3.32-3.006-4.989c-30.777-51.065-26.222-55.402-15.9-59.707
	c9.948-4.146,14.651-15.565,10.507-25.509c-4.146-9.945-15.569-14.649-25.511-10.505c-18.899,7.876-26.417,20.368-29.397,29.464
	c-9.36,28.565,11.379,60.6,29.853,91.318c5.083,8.477,5.385,15.75,0.972,23.582c-4.13,7.325-10.663,12.031-10.73,12.078l0.141-0.098
	l0.008,0.012c-11.366,7.776-11.267,24.47-0.008,32.177c0.057,0.041,6.025,4.378,10.132,11.202
	c7.789,12.936,1.405,21.238-5.582,32.772c7.868,11.496,16.642,22.32,26.234,32.357l12.287-20.698
	c14.44-24.067,12.371-49.997-4.437-71.729C347.792,235.213,349.713,209.256,335.34,185.301z"/>
<path style="fill:#C17C4D;" d="M301.886,205.372c5.083,8.477,5.385,15.75,0.972,23.582c-4.13,7.325-10.663,12.031-10.73,12.078
	l0.141-0.098l0.008,0.012c-11.366,7.776-11.267,24.47-0.008,32.177c0.057,0.041,6.025,4.378,10.132,11.202
	c7.511,12.473,1.952,20.73-5.582,32.772c3.742,5.467,7.696,10.779,11.838,15.929c14.576-25.984,24.076-33.492,14.918-48.7
	c-4.108-6.825-10.075-11.161-10.132-11.202c-11.271-7.714-11.348-24.408,0.008-32.177l-0.008-0.012l-0.143,0.098
	c0.064-0.047,6.6-4.753,10.73-12.078c4.413-7.831,4.112-15.106-0.972-23.582c-18.564-30.867-39.2-62.8-29.852-91.318
	c2.797-8.541,9.604-20.081,26.074-27.977c0,0-2.974-1.989-7.001-2.684c-3.881-0.676-7.672-0.141-10.849,1.196
	c-18.899,7.876-26.417,20.368-29.397,29.464C262.673,142.619,283.412,174.655,301.886,205.372z"/>
<path style="fill:#FFBC00;" d="M255.993,0.007C114.612,0.007,0,114.619,0,256c0,141.382,114.612,255.993,255.993,255.993
	c140.942,0,255.995-114.19,255.995-255.993C511.988,114.619,397.375,0.007,255.993,0.007z M255.993,473.88
	c-120.332,0-217.88-97.546-217.88-217.88c0-120.331,97.547-217.88,217.88-217.88c119.699,0,217.88,96.946,217.88,217.88
	C473.873,376.333,376.324,473.88,255.993,473.88z"/>
<path style="fill:#FFD473;" d="M450.753,422.137C575,276.606,500.677,49.595,313.677,6.536
	c-9.113,10.638-17.372,22.033-24.659,34.077C392.777,56.407,473.873,145.989,473.873,256c0,59.831-24.121,114.02-63.165,153.398
	C423.567,414.691,436.942,418.978,450.753,422.137z"/>
<path style="fill:#C2C5C6;" d="M373.987,264.758H80.601c-4.268,0-7.726-3.459-7.726-7.728c0-4.267,3.458-7.728,7.726-7.728h293.386
	c4.269,0,7.726,3.461,7.726,7.728C381.712,261.298,378.255,264.758,373.987,264.758z"/>
<path style="fill:#FFBC00;" d="M411.248,254.503c-38.099-26.777-36.394-26.347-38.686-25.15c-1.026,0.529-1.665,1.585-1.665,2.74
	c0,53.598-0.644,51.42,1.665,52.617c1.04,0.538,2.267,0.446,3.201-0.215c38.39-26.978,36.797-25.253,36.797-27.465
	C412.561,256.023,412.07,255.079,411.248,254.503z"/>
<g>
</g>
<g>
</g>
<g>
</g>
<g>
</g>
<g>
</g>
<g>
</g>
<g>
</g>
<g>
</g>
<g>
</g>
<g>
</g>
<g>
</g>
<g>
</g>
<g>
</g>
<g>
</g>
<g>
</g>
</svg>
